# xmcd
#
# Track frame offsets: 
#        150
#        15949
#        35318
#        46881
#        67038
#        88266
#        108424
#        134532
#        153903
#        177785
#        211984
#
# Disc length: 3047 seconds
#
# Revision: 0
# Processed by: cddbd v1.5.2PL0 Copyright (c) Steve Scherf et al.
# Submitted via: ExactAudioCopy v1.2
#
DISCID=8b0be50b
DTITLE=King Edward Antoine - King Edward: 50 Years of Blues
DYEAR=2015
DGENRE=Blues
TTITLE0=Bring Your Pretty Self Home
TTITLE1=Lookin' Good Again Tonight
TTITLE2=King of the Castle
TTITLE3=Darling, I Love You - Miss You So
TTITLE4=The Things I Used to Do
TTITLE5=You Don't Love Me
TTITLE6=I'm a Lonely Man
TTITLE7=Mr. Charlie
TTITLE8=My Nerves Gone Bad
TTITLE9=Today I Started Loving You Again
TTITLE10=You Been Cheatin On Me
EXTD=
EXTT0=
EXTT1=
EXTT2=
EXTT3=
EXTT4=
EXTT5=
EXTT6=
EXTT7=
EXTT8=
EXTT9=
EXTT10=
PLAYORDER=
